<svg width="40" height="40" viewBox="0 0 40 40" fill="none" xmlns="http://www.w3.org/2000/svg">
  <g clip-path="url(#clip0)">
    <path fill-rule="evenodd" clip-rule="evenodd" d="M28.8567 19.2191C28.9268 19.8642 28.4336 20.4444 27.7539 20.5153C27.0749 20.5854 26.4678 20.1201 26.3977 19.4749C26.3284 18.8298 26.8216 18.2488 27.5005 18.1787C28.1795 18.1078 28.7866 18.5739 28.8567 19.2191Z" fill="#CBCBCB"/>
    <path fill-rule="evenodd" clip-rule="evenodd" d="M37.5404 7.74549C35.2695 5.47435 31.6072 5.41155 29.2598 7.60352C29.1454 7.7123 29.0806 7.86324 29.0806 8.0211C29.0806 8.17895 29.1454 8.3299 29.2598 8.43868L29.978 9.17363C30.1787 9.37321 30.4957 9.39458 30.7213 9.22374C32.1525 8.08056 34.2306 8.26971 35.4318 9.65249C36.6331 11.0353 36.5298 13.1194 35.1978 14.3767C30.4666 19.1037 24.1527 5.84967 9.82132 12.6813C9.3323 12.9162 8.96385 13.345 8.8052 13.8638C8.64654 14.3826 8.71216 14.9441 8.98616 15.4123L11.4457 19.6591C11.9758 20.5811 13.1499 20.9035 14.0765 20.3815L14.1349 20.3481L14.089 20.3815L15.1664 19.7802C16.3812 19.026 17.5295 18.1696 18.5989 17.2204C18.8176 17.0211 19.1488 17.0105 19.3798 17.1954C19.5021 17.2979 19.5747 17.4478 19.5795 17.6074C19.5843 17.7669 19.5208 17.9208 19.4048 18.0305C18.2793 19.0444 17.0663 19.9569 15.7802 20.7574H15.7426L14.6527 21.367C14.1924 21.6255 13.6732 21.7607 13.1453 21.7596C12.0324 21.7636 11.0022 21.1728 10.4435 20.2103L8.11758 16.1974C3.67033 19.3626 0.939342 25.4426 2.41758 33.1429C2.46764 33.4105 2.70065 33.605 2.97297 33.6064H5.59539C5.89525 33.6142 6.14946 33.3874 6.17583 33.0886C6.43068 31.1592 8.07562 29.7172 10.0218 29.7172C11.9679 29.7172 13.6128 31.1592 13.8677 33.0886C13.9015 33.372 14.1418 33.5854 14.4273 33.5855H16.9912C17.2759 33.5835 17.5152 33.3711 17.5508 33.0886C17.8056 31.1592 19.4506 29.7172 21.3967 29.7172C23.3428 29.7172 24.9878 31.1592 25.2426 33.0886C25.2782 33.3711 25.5175 33.5835 25.8022 33.5855H28.3495C28.6599 33.5855 28.9128 33.3363 28.9174 33.0259C28.9758 29.4347 29.9446 25.309 32.7048 23.242C42.2675 16.0888 39.7536 9.95868 37.5404 7.74549ZM27.7899 18.5484L25.9651 17.6338C25.9646 17.0947 26.3405 16.6285 26.8674 16.5145C27.3943 16.4006 27.9293 16.6699 28.1516 17.161C28.3739 17.6521 28.2232 18.2318 27.7899 18.5525V18.5484Z" fill="#CBCBCB"/>
    <path fill-rule="evenodd" clip-rule="evenodd" d="M24 20L39 29L24 38V20Z" fill="#59A869"/>
  </g>
  <defs>
    <clipPath id="clip0">
      <rect width="40" height="40" fill="white"/>
    </clipPath>
  </defs>
</svg>
